<mxfile host="app.diagrams.net" modified="2022-11-21T09:09:27.865Z" agent="5.0 (Windows NT 10.0; Win64; x64) AppleWebKit/537.36 (KHTML, like Gecko) Chrome/107.0.0.0 Safari/537.36 Edg/107.0.1418.52" etag="7jMV84s581GUl22XnwYU" version="20.5.3" type="github">
  <diagram id="ns_-UHx_dhyElvIUBJqi" name="第 1 页">
    <mxGraphModel dx="1038" dy="539" grid="1" gridSize="10" guides="1" tooltips="1" connect="1" arrows="1" fold="1" page="1" pageScale="1" pageWidth="827" pageHeight="1169" math="0" shadow="0">
      <root>
        <mxCell id="0" />
        <mxCell id="1" parent="0" />
        <mxCell id="QzKJSNW5UsPaES1RZR0W-1" value="Mysql" style="shape=cylinder3;whiteSpace=wrap;html=1;boundedLbl=1;backgroundOutline=1;size=15;fillColor=#dae8fc;strokeColor=#6c8ebf;" vertex="1" parent="1">
          <mxGeometry x="670" y="220" width="120" height="100" as="geometry" />
        </mxCell>
        <mxCell id="QzKJSNW5UsPaES1RZR0W-3" value="" style="rounded=0;whiteSpace=wrap;html=1;align=right;labelPosition=left;verticalLabelPosition=top;verticalAlign=bottom;fillColor=#f8cecc;strokeColor=#b85450;" vertex="1" parent="1">
          <mxGeometry x="40" y="210" width="550" height="340" as="geometry" />
        </mxCell>
        <mxCell id="QzKJSNW5UsPaES1RZR0W-5" value="&lt;h1&gt;Java程序&lt;/h1&gt;&lt;div&gt;1.从连接池取出连接&lt;/div&gt;&lt;div&gt;2.使用连接，操作MySQL。&lt;/div&gt;&lt;div&gt;3.连接放回连接池（连接可以重复利用）&lt;/div&gt;" style="text;html=1;strokeColor=#6c8ebf;fillColor=#dae8fc;spacing=20;spacingTop=-10;whiteSpace=wrap;overflow=hidden;rounded=0;spacingBottom=10;" vertex="1" parent="1">
          <mxGeometry x="60" y="231" width="190" height="189" as="geometry" />
        </mxCell>
        <mxCell id="QzKJSNW5UsPaES1RZR0W-7" value="" style="rounded=1;whiteSpace=wrap;html=1;fillColor=#d5e8d4;strokeColor=#82b366;" vertex="1" parent="1">
          <mxGeometry x="320" y="230" width="230" height="100" as="geometry" />
        </mxCell>
        <mxCell id="QzKJSNW5UsPaES1RZR0W-9" value="连接池" style="text;html=1;strokeColor=none;fillColor=none;align=center;verticalAlign=middle;whiteSpace=wrap;rounded=0;" vertex="1" parent="1">
          <mxGeometry x="330" y="240" width="60" height="30" as="geometry" />
        </mxCell>
        <mxCell id="QzKJSNW5UsPaES1RZR0W-12" value="连接1" style="rounded=0;whiteSpace=wrap;html=1;fillColor=#ffe6cc;strokeColor=#d79b00;" vertex="1" parent="1">
          <mxGeometry x="420" y="240" width="120" height="30" as="geometry" />
        </mxCell>
        <mxCell id="QzKJSNW5UsPaES1RZR0W-15" value="连接2" style="rounded=0;whiteSpace=wrap;html=1;fillColor=#ffe6cc;strokeColor=#d79b00;" vertex="1" parent="1">
          <mxGeometry x="420" y="290" width="120" height="30" as="geometry" />
        </mxCell>
        <mxCell id="QzKJSNW5UsPaES1RZR0W-16" value="Java程序&lt;br&gt;" style="rounded=0;whiteSpace=wrap;html=1;labelBackgroundColor=#FFFFFF;" vertex="1" parent="1">
          <mxGeometry x="60" y="450" width="180" height="70" as="geometry" />
        </mxCell>
        <mxCell id="QzKJSNW5UsPaES1RZR0W-22" value="" style="curved=1;endArrow=classic;html=1;rounded=0;exitX=1;exitY=0.5;exitDx=0;exitDy=0;" edge="1" parent="1" source="QzKJSNW5UsPaES1RZR0W-16">
          <mxGeometry width="50" height="50" relative="1" as="geometry">
            <mxPoint x="270" y="470" as="sourcePoint" />
            <mxPoint x="460" y="320" as="targetPoint" />
            <Array as="points">
              <mxPoint x="400" y="370" />
            </Array>
          </mxGeometry>
        </mxCell>
        <mxCell id="QzKJSNW5UsPaES1RZR0W-23" value="" style="curved=1;endArrow=classic;html=1;rounded=0;exitX=0.13;exitY=0.9;exitDx=0;exitDy=0;exitPerimeter=0;" edge="1" parent="1" source="QzKJSNW5UsPaES1RZR0W-7" target="QzKJSNW5UsPaES1RZR0W-16">
          <mxGeometry width="50" height="50" relative="1" as="geometry">
            <mxPoint x="410" y="280" as="sourcePoint" />
            <mxPoint x="460" y="230" as="targetPoint" />
            <Array as="points">
              <mxPoint x="315" y="360" />
              <mxPoint x="260" y="380" />
            </Array>
          </mxGeometry>
        </mxCell>
        <mxCell id="QzKJSNW5UsPaES1RZR0W-25" value="等待队列" style="text;html=1;strokeColor=none;fillColor=none;align=center;verticalAlign=middle;whiteSpace=wrap;rounded=0;labelBackgroundColor=#FFFFFF;" vertex="1" parent="1">
          <mxGeometry x="280" y="340" width="60" height="30" as="geometry" />
        </mxCell>
        <mxCell id="QzKJSNW5UsPaES1RZR0W-28" value="" style="endArrow=classic;html=1;rounded=0;entryX=0;entryY=0;entryDx=0;entryDy=32.5;entryPerimeter=0;exitX=1;exitY=0.25;exitDx=0;exitDy=0;" edge="1" parent="1" source="QzKJSNW5UsPaES1RZR0W-7" target="QzKJSNW5UsPaES1RZR0W-1">
          <mxGeometry width="50" height="50" relative="1" as="geometry">
            <mxPoint x="530" y="250" as="sourcePoint" />
            <mxPoint x="460" y="320" as="targetPoint" />
          </mxGeometry>
        </mxCell>
        <mxCell id="QzKJSNW5UsPaES1RZR0W-29" value="" style="endArrow=classic;html=1;rounded=0;exitX=0;exitY=0;exitDx=0;exitDy=67.5;exitPerimeter=0;" edge="1" parent="1" source="QzKJSNW5UsPaES1RZR0W-1">
          <mxGeometry width="50" height="50" relative="1" as="geometry">
            <mxPoint x="410" y="370" as="sourcePoint" />
            <mxPoint x="550" y="288" as="targetPoint" />
          </mxGeometry>
        </mxCell>
      </root>
    </mxGraphModel>
  </diagram>
</mxfile>
